<svg 
 xmlns="http://www.w3.org/2000/svg"
 xmlns:xlink="http://www.w3.org/1999/xlink"
 width="11px" height="7px">
<path fill-rule="evenodd"  fill="rgb(254, 185, 96)"
 d="M0.699,3.422 L9.258,3.422 L7.398,1.535 C7.161,1.335 7.161,1.134 7.398,0.933 C7.599,0.697 7.799,0.697 8.000,0.933 L10.625,3.558 C10.661,3.577 10.698,3.623 10.734,3.695 C10.752,3.732 10.762,3.787 10.762,3.859 C10.762,3.932 10.752,3.987 10.734,4.023 C10.698,4.097 10.661,4.142 10.625,4.160 L8.000,6.785 C7.799,7.022 7.599,7.022 7.398,6.785 C7.161,6.585 7.161,6.384 7.398,6.183 L9.258,4.297 L0.699,4.297 C0.407,4.297 0.262,4.151 0.262,3.859 C0.262,3.568 0.407,3.422 0.699,3.422 L0.699,3.422 Z"/>
</svg>