<svg 
 xmlns="http://www.w3.org/2000/svg"
 xmlns:xlink="http://www.w3.org/1999/xlink"
 width="21px" height="21px">
<path fill-rule="evenodd"  fill="rgb(254, 185, 96)"
 d="M6.840,8.789 L9.105,6.523 L15.512,12.969 L16.645,16.328 L13.285,15.195 L6.840,8.789 ZM3.871,5.820 C3.559,5.508 3.402,5.131 3.402,4.687 C3.402,4.245 3.559,3.867 3.871,3.555 C4.184,3.242 4.561,3.086 5.004,3.086 C5.446,3.086 5.824,3.242 6.137,3.555 L7.777,5.234 L5.551,7.461 L3.871,5.820 ZM20.023,0.449 C20.271,0.697 20.395,0.990 20.395,1.328 L20.395,18.828 C20.395,19.166 20.271,19.459 20.023,19.707 C19.776,19.954 19.483,20.078 19.145,20.078 L1.645,20.078 C1.306,20.078 1.013,19.954 0.766,19.707 C0.518,19.459 0.395,19.166 0.395,18.828 L0.395,1.328 C0.395,0.990 0.518,0.697 0.766,0.449 C1.013,0.202 1.306,0.078 1.645,0.078 L19.145,0.078 C19.483,0.078 19.776,0.202 20.023,0.449 ZM19.145,1.328 L1.645,1.328 L1.645,18.828 L19.145,18.828 L19.145,1.328 Z"/>
</svg>