<svg 
 xmlns="http://www.w3.org/2000/svg"
 xmlns:xlink="http://www.w3.org/1999/xlink"
 width="16px" height="21px">
<path fill-rule="evenodd"  fill="rgb(254, 185, 96)"
 d="M0.895,2.578 C0.895,1.875 1.135,1.283 1.617,0.801 C2.099,0.319 2.691,0.078 3.395,0.078 C4.098,0.078 4.690,0.319 5.172,0.801 C5.653,1.283 5.894,1.875 5.894,2.578 L5.894,3.828 L5.894,13.828 L3.395,20.078 L1.090,14.297 L0.895,13.828 L0.895,3.828 L0.895,3.828 L0.895,2.578 ZM2.144,3.828 L4.645,3.828 L4.645,2.578 C4.645,2.240 4.521,1.947 4.273,1.699 C4.026,1.452 3.733,1.328 3.395,1.328 C3.056,1.328 2.763,1.452 2.516,1.699 C2.268,1.947 2.144,2.240 2.144,2.578 L2.144,3.828 ZM4.019,15.117 L4.293,14.492 L4.293,14.414 L3.395,13.984 L2.496,14.414 L2.496,14.492 L2.770,15.117 L3.395,16.719 L4.019,15.117 ZM4.645,5.976 L4.645,5.234 L4.645,5.078 L3.395,5.078 L2.144,5.078 L2.144,5.234 L2.144,5.976 L2.144,13.203 L3.395,12.578 L4.645,13.203 L4.645,5.976 ZM14.645,5.078 L14.645,11.328 C14.983,11.328 15.276,11.452 15.523,11.699 C15.771,11.947 15.895,12.240 15.895,12.578 L15.895,16.328 C15.895,16.667 15.771,16.960 15.523,17.207 C15.276,17.455 14.983,17.578 14.645,17.578 C14.645,18.281 14.403,18.873 13.922,19.355 C13.440,19.837 12.848,20.078 12.145,20.078 C11.441,20.078 10.849,19.837 10.367,19.355 C9.885,18.873 9.644,18.281 9.644,17.578 L9.644,5.078 L10.152,3.789 L11.324,0.781 L11.363,0.781 C11.389,0.573 11.474,0.404 11.617,0.273 C11.760,0.143 11.936,0.078 12.145,0.078 C12.561,0.078 12.821,0.287 12.926,0.703 L14.137,3.789 L14.645,5.078 ZM13.394,11.328 L13.394,5.078 L13.316,5.078 L10.973,5.078 L10.895,5.078 L10.895,17.578 C10.895,17.917 11.018,18.210 11.266,18.457 C11.513,18.705 11.806,18.828 12.145,18.828 C12.483,18.828 12.776,18.705 13.023,18.457 C13.271,18.210 13.394,17.917 13.394,17.578 L13.394,16.328 L13.394,12.578 L13.394,11.328 ZM12.145,2.188 L11.480,3.828 L12.809,3.828 L12.145,2.188 Z"/>
</svg>