<svg 
 xmlns="http://www.w3.org/2000/svg"
 xmlns:xlink="http://www.w3.org/1999/xlink"
 width="19px" height="21px">
<path fill-rule="evenodd"  fill="rgb(254, 185, 96)"
 d="M1.016,17.207 C0.768,16.960 0.645,16.667 0.645,16.328 L0.645,1.328 C0.645,0.990 0.768,0.697 1.016,0.449 C1.263,0.202 1.556,0.078 1.895,0.078 L14.395,0.078 C14.733,0.078 15.026,0.202 15.273,0.449 C15.521,0.697 15.645,0.990 15.645,1.328 L15.645,2.578 L16.895,2.578 C17.233,2.578 17.526,2.702 17.773,2.949 C18.021,3.197 18.145,3.490 18.145,3.828 L18.145,18.828 C18.145,19.166 18.021,19.459 17.773,19.707 C17.526,19.954 17.233,20.078 16.895,20.078 L4.395,20.078 C4.056,20.078 3.763,19.954 3.516,19.707 C3.268,19.459 3.145,19.166 3.145,18.828 L3.145,17.578 L1.895,17.578 C1.556,17.578 1.263,17.455 1.016,17.207 ZM14.395,1.328 L1.895,1.328 L1.895,16.328 L14.395,16.328 L14.395,1.328 ZM15.645,3.828 L15.645,16.328 C15.645,16.667 15.521,16.960 15.273,17.207 C15.026,17.455 14.733,17.578 14.395,17.578 L4.395,17.578 L4.395,18.828 L16.895,18.828 L16.895,3.828 L15.645,3.828 ZM6.270,3.828 L12.520,3.828 C12.701,3.828 12.852,3.887 12.969,4.004 C13.086,4.121 13.145,4.271 13.145,4.453 C13.145,4.636 13.086,4.785 12.969,4.902 C12.852,5.019 12.701,5.078 12.520,5.078 L6.270,5.078 C6.087,5.078 5.938,5.019 5.820,4.902 C5.703,4.785 5.645,4.636 5.645,4.453 C5.645,4.271 5.703,4.121 5.820,4.004 C5.938,3.887 6.087,3.828 6.270,3.828 L6.270,3.828 ZM3.320,8.652 C3.203,8.535 3.145,8.386 3.145,8.203 C3.145,8.021 3.203,7.871 3.320,7.754 C3.438,7.637 3.587,7.578 3.770,7.578 L12.520,7.578 C12.701,7.578 12.852,7.637 12.969,7.754 C13.086,7.871 13.145,8.021 13.145,8.203 C13.145,8.386 13.086,8.535 12.969,8.652 C12.852,8.770 12.701,8.828 12.520,8.828 L3.770,8.828 C3.587,8.828 3.438,8.770 3.320,8.652 ZM3.320,11.152 C3.203,11.035 3.145,10.886 3.145,10.703 C3.145,10.521 3.203,10.371 3.320,10.254 C3.438,10.137 3.587,10.078 3.770,10.078 L12.520,10.078 C12.701,10.078 12.852,10.137 12.969,10.254 C13.086,10.371 13.145,10.521 13.145,10.703 C13.145,10.886 13.086,11.035 12.969,11.152 C12.852,11.269 12.701,11.328 12.520,11.328 L3.770,11.328 C3.587,11.328 3.438,11.269 3.320,11.152 ZM3.320,13.652 C3.203,13.535 3.145,13.385 3.145,13.203 C3.145,13.021 3.203,12.871 3.320,12.754 C3.438,12.637 3.587,12.578 3.770,12.578 L12.520,12.578 C12.701,12.578 12.852,12.637 12.969,12.754 C13.086,12.871 13.145,13.021 13.145,13.203 C13.145,13.385 13.086,13.535 12.969,13.652 C12.852,13.770 12.701,13.828 12.520,13.828 L3.770,13.828 C3.587,13.828 3.438,13.770 3.320,13.652 Z"/>
</svg>